<?xml version="1.0" encoding="UTF-8" standalone="no"?>
<svg
   xmlns:dc="http://purl.org/dc/elements/1.1/"
   xmlns:cc="http://creativecommons.org/ns#"
   xmlns:rdf="http://www.w3.org/1999/02/22-rdf-syntax-ns#"
   xmlns:svg="http://www.w3.org/2000/svg"
   xmlns="http://www.w3.org/2000/svg"
   xmlns:sodipodi="http://sodipodi.sourceforge.net/DTD/sodipodi-0.dtd"
   xmlns:inkscape="http://www.inkscape.org/namespaces/inkscape"
   inkscape:export-ydpi="32"
   inkscape:export-xdpi="32"
   inkscape:export-filename="/home/stephan/sgx/sgaxe.png"
   inkscape:version="1.0 (unknown)"
   sodipodi:docname="sgaxe.svg"
   id="svg8"
   version="1.1"
   viewBox="0 0 150.8605 142.76959"
   height="142.76959mm"
   width="150.8605mm">
  <defs
     id="defs2" />
  <sodipodi:namedview
     fit-margin-bottom="0"
     fit-margin-right="0"
     fit-margin-left="0"
     fit-margin-top="0"
     inkscape:bbox-nodes="true"
     inkscape:snap-bbox="true"
     inkscape:window-maximized="1"
     inkscape:window-y="10"
     inkscape:window-x="1925"
     inkscape:window-height="2106"
     inkscape:window-width="948"
     showgrid="false"
     inkscape:document-rotation="0"
     inkscape:current-layer="layer1"
     inkscape:document-units="mm"
     inkscape:cy="-244.24652"
     inkscape:cx="231.47024"
     inkscape:zoom="0.57421335"
     inkscape:pageshadow="2"
     inkscape:pageopacity="0.0"
     borderopacity="1.0"
     bordercolor="#666666"
     pagecolor="#ffffff"
     id="base">
    <inkscape:grid
       originy="-71.417981"
       originx="-19.832441"
       id="grid833"
       type="xygrid" />
  </sodipodi:namedview>
  <metadata
     id="metadata5">
    <rdf:RDF>
      <cc:Work
         rdf:about="">
        <dc:format>image/svg+xml</dc:format>
        <dc:type
           rdf:resource="http://purl.org/dc/dcmitype/StillImage" />
        <dc:title></dc:title>
      </cc:Work>
    </rdf:RDF>
  </metadata>
  <g
     transform="translate(-19.832442,-71.417984)"
     id="layer1"
     inkscape:groupmode="layer"
     inkscape:label="Layer 1">
    <path
       inkscape:export-ydpi="48"
       inkscape:export-xdpi="48"
       sodipodi:nodetypes="ccccc"
       id="path1311"
       d="m 124.38147,103.1875 h 19.53208 c 1.70905,0 2.4415,0.79375 2.4415,2.64583 0,1.85209 -0.73245,2.64584 -2.4415,2.64584 h -19.53208"
       style="fill:#2171b9;fill-opacity:1;stroke:#2171b9;stroke-width:0.999997;stroke-linecap:butt;stroke-linejoin:miter;stroke-miterlimit:4;stroke-dasharray:none;stroke-opacity:1" />
    <path
       inkscape:export-ydpi="48"
       inkscape:export-xdpi="48"
       sodipodi:nodetypes="ccccc"
       id="path1313"
       d="m 124.38147,121.70833 h 19.53208 c 1.70905,0 2.4415,0.79375 2.4415,2.64584 0,1.85208 -0.73245,2.64583 -2.4415,2.64583 h -19.53208"
       style="fill:#2171b9;fill-opacity:1;stroke:#2171b9;stroke-width:0.999997;stroke-linecap:butt;stroke-linejoin:miter;stroke-miterlimit:4;stroke-dasharray:none;stroke-opacity:1" />
    <path
       inkscape:export-ydpi="48"
       inkscape:export-xdpi="48"
       style="fill:#2171b9;fill-opacity:1;stroke:#2171b9;stroke-width:0.999997;stroke-linecap:butt;stroke-linejoin:miter;stroke-miterlimit:4;stroke-dasharray:none;stroke-opacity:1"
       d="m 124.38147,140.22917 h 19.53208 c 1.70906,0 2.44151,0.79375 2.44151,2.64582 0,1.85209 -0.73245,2.64584 -2.44151,2.64584 h -19.53208"
       id="path1317"
       sodipodi:nodetypes="ccccc" />
    <path
       inkscape:export-ydpi="48"
       inkscape:export-xdpi="48"
       sodipodi:nodetypes="ccccc"
       id="path1319"
       d="m 124.38147,158.75 h 19.53208 c 1.70906,0 2.44151,0.79375 2.44151,2.64583 0,1.85208 -0.73245,2.64583 -2.44151,2.64583 h -19.53208"
       style="fill:#2171b9;fill-opacity:1;stroke:#2171b9;stroke-width:0.999997;stroke-linecap:butt;stroke-linejoin:miter;stroke-miterlimit:4;stroke-dasharray:none;stroke-opacity:1" />
    <path
       inkscape:export-ydpi="48"
       inkscape:export-xdpi="48"
       style="fill:#2171b9;fill-opacity:1;stroke:#2171b9;stroke-width:0.999998;stroke-linecap:butt;stroke-linejoin:miter;stroke-miterlimit:4;stroke-dasharray:none;stroke-opacity:1"
       d="M 52.916667,92.55705 V 74.211219 c 0,-1.605258 0.79375,-2.293226 2.645833,-2.293227 1.852084,10e-7 2.645834,0.687969 2.645834,2.293227 V 92.55705"
       id="path1325"
       sodipodi:nodetypes="ccccc" />
    <path
       inkscape:export-ydpi="48"
       inkscape:export-xdpi="48"
       style="fill:#2171b9;fill-opacity:1;stroke:#2171b9;stroke-width:0.999998;stroke-linecap:butt;stroke-linejoin:miter;stroke-miterlimit:4;stroke-dasharray:none;stroke-opacity:1"
       d="M 71.4375,92.55705 V 74.211219 c 0,-1.605258 0.79375,-2.293226 2.645833,-2.293227 1.852084,10e-7 2.645834,0.687969 2.645834,2.293227 V 92.55705"
       id="path1327"
       sodipodi:nodetypes="ccccc" />
    <path
       inkscape:export-ydpi="48"
       inkscape:export-xdpi="48"
       sodipodi:nodetypes="ccccc"
       id="path1331"
       d="M 89.958333,92.55705 V 74.211214 c 0,-1.605258 0.79375,-2.293226 2.645833,-2.293227 1.852084,10e-7 2.645834,0.687969 2.645834,2.293227 V 92.55705"
       style="fill:#2171b9;fill-opacity:1;stroke:#2171b9;stroke-width:0.999998;stroke-linecap:butt;stroke-linejoin:miter;stroke-miterlimit:4;stroke-dasharray:none;stroke-opacity:1" />
    <path
       inkscape:export-ydpi="48"
       inkscape:export-xdpi="48"
       style="fill:#2171b9;fill-opacity:1;stroke:#2171b9;stroke-width:0.999998;stroke-linecap:butt;stroke-linejoin:miter;stroke-miterlimit:4;stroke-dasharray:none;stroke-opacity:1"
       d="M 108.47917,92.55705 V 74.21121 c 0,-1.605258 0.79375,-2.293226 2.64583,-2.293227 1.85208,10e-7 2.64583,0.687969 2.64583,2.293227 v 18.34584"
       id="path1333"
       sodipodi:nodetypes="ccccc" />
    <path
       inkscape:export-ydpi="48"
       inkscape:export-xdpi="48"
       sodipodi:nodetypes="ccccc"
       id="path1339"
       d="m 58.208335,174.6523 v 19.53209 c 0,1.70905 -0.793751,2.4415 -2.645833,2.4415 -1.852084,0 -2.645834,-0.73245 -2.645834,-2.4415 V 174.6523"
       style="fill:#2171b9;fill-opacity:1;stroke:#2171b9;stroke-width:0.999997;stroke-linecap:butt;stroke-linejoin:miter;stroke-miterlimit:4;stroke-dasharray:none;stroke-opacity:1" />
    <path
       inkscape:export-ydpi="48"
       inkscape:export-xdpi="48"
       sodipodi:nodetypes="ccccc"
       id="path1341"
       d="m 76.729168,174.6523 v 19.53209 c 0,1.70905 -0.793751,2.4415 -2.645833,2.4415 -1.852084,0 -2.645835,-0.73245 -2.645835,-2.4415 V 174.6523"
       style="fill:#ffffff;stroke:#0071c5;stroke-width:0.999997;stroke-linecap:butt;stroke-linejoin:miter;stroke-miterlimit:4;stroke-dasharray:none;stroke-opacity:1" />
    <path
       inkscape:export-ydpi="48"
       inkscape:export-xdpi="48"
       style="fill:#2171b9;fill-opacity:1;stroke:#0071c5;stroke-width:0.999997;stroke-linecap:butt;stroke-linejoin:miter;stroke-miterlimit:4;stroke-dasharray:none;stroke-opacity:1"
       d="m 95.250001,174.65229 v 19.5321 c 0,1.70905 -0.79375,2.4415 -2.645833,2.4415 -1.852084,0 -2.645834,-0.73245 -2.645834,-2.4415 v -19.5321"
       id="path1345"
       sodipodi:nodetypes="ccccc" />
    <path
       inkscape:export-ydpi="48"
       inkscape:export-xdpi="48"
       sodipodi:nodetypes="ccccc"
       id="path1347"
       d="m 113.77083,174.65229 v 19.5321 c 0,1.70905 -0.79375,2.4415 -2.64583,2.4415 -1.85208,0 -2.64583,-0.73245 -2.64583,-2.4415 v -19.5321"
       style="fill:#2171b9;fill-opacity:1;stroke:#2171b9;stroke-width:0.999997;stroke-linecap:butt;stroke-linejoin:miter;stroke-miterlimit:4;stroke-dasharray:none;stroke-opacity:1" />
    <path
       inkscape:export-ydpi="48"
       inkscape:export-xdpi="48"
       style="fill:#2171b9;fill-opacity:1;stroke:#2171b9;stroke-width:0.999997;stroke-linecap:butt;stroke-linejoin:miter;stroke-miterlimit:4;stroke-dasharray:none;stroke-opacity:1"
       d="M 42.306031,103.1875 H 22.773955 c -1.709053,0 -2.441505,0.79375 -2.441505,2.64583 0,1.85209 0.732452,2.64584 2.441505,2.64584 h 19.532076"
       id="path1351"
       sodipodi:nodetypes="ccccc" />
    <path
       inkscape:export-ydpi="48"
       inkscape:export-xdpi="48"
       style="fill:#2171b9;fill-opacity:1;stroke:#0071c5;stroke-width:0.999997;stroke-linecap:butt;stroke-linejoin:miter;stroke-miterlimit:4;stroke-dasharray:none;stroke-opacity:1"
       d="M 42.306031,121.70833 H 22.773955 c -1.709053,0 -2.441505,0.79375 -2.441505,2.64584 0,1.85208 0.732452,2.64583 2.441505,2.64583 h 19.532076"
       id="path1353"
       sodipodi:nodetypes="ccccc" />
    <path
       inkscape:export-ydpi="48"
       inkscape:export-xdpi="48"
       sodipodi:nodetypes="ccccc"
       id="path1357"
       d="M 42.306031,140.22917 H 22.773955 c -1.709062,0 -2.441514,0.79375 -2.441514,2.64582 0,1.85209 0.732452,2.64584 2.441514,2.64584 h 19.532076"
       style="fill:#ffffff;stroke:#0071c5;stroke-width:0.999997;stroke-linecap:butt;stroke-linejoin:miter;stroke-miterlimit:4;stroke-dasharray:none;stroke-opacity:1" />
    <path
       inkscape:export-ydpi="48"
       inkscape:export-xdpi="48"
       style="fill:#2171b9;fill-opacity:1;stroke:#2171b9;stroke-width:0.999997;stroke-linecap:butt;stroke-linejoin:miter;stroke-miterlimit:4;stroke-dasharray:none;stroke-opacity:1"
       d="M 42.306031,158.75 H 22.773945 c -1.709052,0 -2.441504,0.79375 -2.441504,2.64583 0,1.85208 0.732452,2.64583 2.441504,2.64583 h 19.532086"
       id="path1359"
       sodipodi:nodetypes="ccccc" />
    <path
       inkscape:export-ydpi="48"
       inkscape:export-xdpi="48"
       id="rect1321"
       style="fill:#ffffff;fill-opacity:1;stroke:#2171b9;stroke-width:3;stroke-miterlimit:4;stroke-dasharray:none;stroke-opacity:1"
       d="m 48.94792,92.604157 h 68.79167 c 3.66448,0 6.61459,2.9501 6.61459,6.61458 v 68.791673 c 0,3.66448 -2.95011,6.61459 -6.61459,6.61459 H 48.94792 c -3.664481,0 -6.614586,-2.95011 -6.614586,-6.61459 V 99.218737 c 0,-3.66448 2.950105,-6.61458 6.614586,-6.61458 z" />
    <path
       inkscape:export-ydpi="48"
       inkscape:export-xdpi="48"
       style="fill:#2171b9;fill-opacity:1;stroke:#2171b9;stroke-width:0.999997;stroke-linecap:butt;stroke-linejoin:miter;stroke-miterlimit:4;stroke-dasharray:none;stroke-opacity:1"
       d="m 76.729168,174.6523 v 19.53209 c 0,1.70905 -0.793751,2.4415 -2.645833,2.4415 -1.852084,0 -2.645835,-0.73245 -2.645835,-2.4415 V 174.6523"
       id="path1337"
       sodipodi:nodetypes="ccccc" />
    <path
       inkscape:export-ydpi="48"
       inkscape:export-xdpi="48"
       sodipodi:nodetypes="ccccc"
       id="path1343"
       d="m 95.250001,174.65229 v 19.5321 c 0,1.70905 -0.79375,2.4415 -2.645833,2.4415 -1.852084,0 -2.645834,-0.73245 -2.645834,-2.4415 v -19.5321"
       style="fill:none;stroke:#2171b9;stroke-width:0.999997;stroke-linecap:butt;stroke-linejoin:miter;stroke-miterlimit:4;stroke-dasharray:none;stroke-opacity:1" />
    <path
       inkscape:export-ydpi="48"
       inkscape:export-xdpi="48"
       sodipodi:nodetypes="ccccc"
       id="path1349"
       d="M 42.306031,121.70833 H 22.773955 c -1.709053,0 -2.441505,0.79375 -2.441505,2.64584 0,1.85208 0.732452,2.64583 2.441505,2.64583 h 19.532076"
       style="fill:none;stroke:#2171b9;stroke-width:0.999997;stroke-linecap:butt;stroke-linejoin:miter;stroke-miterlimit:4;stroke-dasharray:none;stroke-opacity:1" />
    <path
       inkscape:export-ydpi="48"
       inkscape:export-xdpi="48"
       style="fill:#2171b9;fill-opacity:1;stroke:#2171b9;stroke-width:0.999997;stroke-linecap:butt;stroke-linejoin:miter;stroke-miterlimit:4;stroke-dasharray:none;stroke-opacity:1"
       d="M 42.306031,140.22917 H 22.773955 c -1.709062,0 -2.441514,0.79375 -2.441514,2.64582 0,1.85209 0.732452,2.64584 2.441514,2.64584 h 19.532076"
       id="path1355"
       sodipodi:nodetypes="ccccc" />
    <path
       inkscape:export-ydpi="48"
       inkscape:export-xdpi="48"
       id="path1652"
       style="fill:#ffffff;fill-opacity:1;stroke:none;stroke-width:0.999998;stroke-linecap:butt;stroke-linejoin:miter;stroke-miterlimit:4;stroke-dasharray:none;stroke-opacity:1"
       d="m 145.6068,161.39583 c 0,-1.5875 -0.35055,-1.85208 -2.33803,-1.85208 h -4.36252 c 3.06434,0.32058 5.82578,0.78449 6.61458,2.91041 0.0837,-0.14488 0.086,-0.25995 0.086,-1.05833 z"
       sodipodi:nodetypes="csccc" />
    <path
       inkscape:export-ydpi="48"
       inkscape:export-xdpi="48"
       sodipodi:nodetypes="csccc"
       d="m 145.6068,142.875 c 0,-1.5875 -0.35055,-1.85208 -2.33803,-1.85208 h -4.36252 c 3.06434,0.32058 5.82578,0.78449 6.61458,2.91041 0.0837,-0.14488 0.086,-0.25995 0.086,-1.05833 z"
       style="fill:#ffffff;fill-opacity:1;stroke:none;stroke-width:0.999998;stroke-linecap:butt;stroke-linejoin:miter;stroke-miterlimit:4;stroke-dasharray:none;stroke-opacity:1"
       id="path1650" />
    <path
       inkscape:export-ydpi="48"
       inkscape:export-xdpi="48"
       id="path1551"
       style="fill:#ffffff;fill-opacity:1;stroke:#ffffff;stroke-width:2;stroke-linecap:butt;stroke-linejoin:miter;stroke-miterlimit:4;stroke-dasharray:none;stroke-opacity:1"
       d="m 112.29124,94.937463 c -0.20134,-0.93248 0.46719,-2.24309 2.68574,-3.20747 1.71579,-0.74584 3.77481,-0.64075 4.17742,0.22411 l 2.23752,5.14737 12.41844,26.221837 35.80035,82.35796 c -2.42487,6.15408 -7.57225,8.3916 -14.2113,7.19754 3.17072,-4.43829 2.12725,-16.22471 -0.85611,-23.08788 l -27.59611,-63.48426 -12.41843,-26.22184 z m 2.23747,5.147297 c -16.81507,7.30938 -31.26518,15.54814 -42.508,8.99273 -0.79165,5.31292 -0.97048,10.14529 -0.97048,12.31294 0,1.83109 0.0626,3.39091 0.25321,5.1785 3.27802,11.88509 11.32725,24.41113 19.42466,26.70173 2.38812,-13.27812 15.62948,-18.01416 36.21898,-26.96425 z" />
    <path
       inkscape:export-ydpi="48"
       inkscape:export-xdpi="48"
       sodipodi:nodetypes="ccccccccccccccccc"
       id="path1584"
       d="m 71.702083,107.15625 -4.65629,-1.25966 0.568009,-4.50396 -7.858899,-4.968211 5.495015,5.598241 -0.691585,4.07526 -8.164688,0.12512 -2.418645,-4.35846 1.535459,5.80298 4.341924,0.50057 -0.8503,5.07354 -6.077978,3.83073 7.70832,-3.19826 1.412088,-5.81642 2.82878,-0.66618 6.784073,2.83452 z"
       style="fill:#2171b9;fill-opacity:1;stroke:none;stroke-width:0.264583px;stroke-linecap:butt;stroke-linejoin:miter;stroke-opacity:1" />
    <path
       inkscape:export-ydpi="48"
       inkscape:export-xdpi="48"
       sodipodi:nodetypes="cccccccccccccc"
       id="path1586"
       d="m 71.702083,107.15625 6.662387,-1.89907 -1.776457,-3.90735 9.401569,-4.776915 -8.114465,5.300435 2.069499,3.047 3.149994,2.93998 2.582653,-3.60404 8.7827,-1.75254 -7.893969,2.52596 -3.222244,4.24321 -4.224816,-3.17302 -7.09822,2.97759 z"
       style="fill:#2171b9;fill-opacity:1;stroke:none;stroke-width:0.264583px;stroke-linecap:butt;stroke-linejoin:miter;stroke-opacity:1" />
    <path
       inkscape:export-ydpi="48"
       inkscape:export-xdpi="48"
       sodipodi:nodetypes="cccccccccccccccccccccccccc"
       id="path1590"
       d="m 72.045745,128.80569 -2.119886,0.0843 3.325075,9.42798 -1.433634,3.08498 6.665659,6.70346 -8.267473,-6.12752 0.988928,-1.8403 -5.291746,2.2749 0.758525,6.4302 -2.947018,-7.07993 2.52256,-1.10779 -4.029566,-1.11131 -8.628816,4.16165 8.013892,-5.45548 6.382419,1.71028 3.818322,-1.68639 -1.330797,-4.01577 -1.532074,-1.0078 -0.661516,2.66338 -4.281593,-3.313 3.649737,1.55766 0.457567,-2.19825 1.559103,0.64772 -1.227736,-3.75201 2.317288,-2.63513 z"
       style="fill:#2171b9;fill-opacity:1;stroke:none;stroke-width:0.264583px;stroke-linecap:butt;stroke-linejoin:miter;stroke-opacity:1" />
    <path
       inkscape:export-ydpi="48"
       inkscape:export-xdpi="48"
       style="fill:none;stroke:#2171b9;stroke-width:0.5;stroke-linecap:butt;stroke-linejoin:miter;stroke-miterlimit:4;stroke-dasharray:none;stroke-opacity:1"
       d="m 114.52876,100.08483 c -0.20134,-0.932477 0.46719,-2.243087 2.68574,-3.207467 1.7158,-0.74584 3.63293,-0.5592 4.17742,0.22411 l 12.41844,26.221837 c 0.20133,0.93248 -0.96995,2.46163 -2.68575,3.20747 -1.71579,0.74584 -3.63292,0.5592 -4.17742,-0.22411 z"
       id="path1434"
       sodipodi:nodetypes="ccccccc" />
    <path
       inkscape:export-ydpi="48"
       inkscape:export-xdpi="48"
       d="m 114.52871,100.08476 c -16.815068,7.30938 -31.265181,15.54815 -42.507996,8.99273 -0.791654,5.31292 -0.970484,10.1453 -0.970484,12.31294 0,1.83109 0.06261,3.39092 0.253215,5.1785 3.278018,11.88509 11.32724,24.41113 19.424655,26.70173 2.388118,-13.27811 15.62948,-18.01416 36.21898,-26.96425 z"
       style="fill:#2171b9;stroke:#2171b9;stroke-width:1;stroke-linecap:butt;stroke-linejoin:miter;stroke-miterlimit:4;stroke-dasharray:none;stroke-opacity:1;fill-opacity:1"
       id="path1436" />
    <path
       inkscape:export-ydpi="48"
       inkscape:export-xdpi="48"
       id="path1438"
       style="fill:#ffffff;fill-opacity:1;stroke:none;stroke-width:0.499999;stroke-linecap:butt;stroke-linejoin:miter;stroke-miterlimit:4;stroke-dasharray:none;stroke-opacity:1"
       d="m 114.14078,101.06948 c -2.56735,1.15091 -5.21245,2.53546 -7.64647,3.52787 -10.51681,4.72924 -19.90318,8.65175 -27.96704,7.46505 0.0652,10.56704 6.80931,25.91947 14.46931,33.28634 5.26714,-7.59359 15.26654,-11.98672 29.97453,-18.33369 0.83914,-0.37193 2.11553,-0.71507 2.99143,-1.09636 z"
       sodipodi:nodetypes="ccccccc" />
    <path
       inkscape:export-ydpi="48"
       inkscape:export-xdpi="48"
       id="path1440"
       style="fill:#2171b9;fill-opacity:1;stroke:none;stroke-width:0.499999;stroke-linecap:butt;stroke-linejoin:miter;stroke-miterlimit:4;stroke-dasharray:none;stroke-opacity:1"
       d="m 120.46926,97.159493 c -0.83389,-0.15007 -1.92889,-0.0425 -2.95642,0.40419 -1.17338,0.51005 -1.91263,1.11684 -2.3192,1.71336 -0.02,0.17836 -0.0131,0.34968 0.0214,0.50945 l 12.41843,26.221837 c 0.0625,0.0897 0.14477,0.17073 0.24087,0.24433 0.83303,0.14814 1.92729,0.0372 2.95189,-0.4082 1.02393,-0.44509 1.85255,-1.16888 2.31201,-1.87839 0.0119,-0.1211 0.009,-0.23706 -0.0142,-0.34442 L 120.70561,97.399803 c -0.0613,-0.0882 -0.1424,-0.16769 -0.23635,-0.24031 z m -0.73875,4.121817 a 0.79374795,0.79374861 21.505795 0 1 0.0125,0.005 0.79374795,0.79374861 21.505795 0 1 0.44751,1.02947 0.79374795,0.79374861 21.505795 0 1 -1.02948,0.44751 0.79374795,0.79374861 21.505795 0 1 -0.4475,-1.02948 0.79374795,0.79374861 21.505795 0 1 1.01697,-0.45243 z m 9.43459,19.35849 a 0.79375176,0.79375176 0 0 1 4.7e-4,1.9e-4 0.79375176,0.79375176 0 0 1 0.0125,0.005 0.79375176,0.79375176 0 0 1 0.4475,1.02948 0.79375176,0.79375176 0 0 1 -1.02947,0.4475 0.79375176,0.79375176 0 0 1 -0.44751,-1.02947 0.79375176,0.79375176 0 0 1 1.0165,-0.45262 z" />
    <path
       inkscape:export-ydpi="48"
       inkscape:export-xdpi="48"
       sodipodi:nodetypes="ccscccccccc"
       id="path1442"
       d="m 112.29124,94.937463 c -0.20134,-0.93248 0.46719,-2.24309 2.68574,-3.20747 1.71579,-0.74584 3.77481,-0.64075 4.17742,0.22411 l 2.23752,5.14737 12.41844,26.221837 35.80035,82.35796 c -2.42487,6.15408 -7.57225,8.3916 -14.2113,7.19754 3.17072,-4.43829 2.12725,-16.22471 -0.85611,-23.08788 l -27.59611,-63.48426 -12.41843,-26.22184 z"
       style="fill:none;stroke:#2171b9;stroke-width:1;stroke-linecap:butt;stroke-linejoin:round;stroke-miterlimit:4;stroke-dasharray:none;stroke-opacity:1" />
    <path
       inkscape:export-ydpi="48"
       inkscape:export-xdpi="48"
       id="path1444"
       style="fill:#2171b9;fill-opacity:1;stroke:none;stroke-width:0.499999;stroke-linecap:butt;stroke-linejoin:miter;stroke-miterlimit:4;stroke-dasharray:none;stroke-opacity:1"
       d="m 92.96932,111.49655 c -4.94907,1.57888 -8.573331,2.28246 -12.750751,2.05835 -0.22411,4.17743 3.499471,14.20312 3.499471,14.20312 -3.38096,-12.67015 -0.227591,-12.90717 9.25128,-16.26147 z"
       sodipodi:nodetypes="cccc" />
    <path
       inkscape:export-ydpi="48"
       inkscape:export-xdpi="48"
       id="path1446"
       style="fill:#2171b9;fill-opacity:1;stroke:none;stroke-width:1;stroke-linecap:butt;stroke-linejoin:miter;stroke-miterlimit:4;stroke-dasharray:none;stroke-opacity:1"
       d="m 153.73058,184.63621 c 4.76603,9.55626 5.95866,21.68584 4.16794,26.95226 4.73846,0.30376 7.41267,-1.5733 8.43158,-3.12189 -6.31272,0.78356 -8.43901,-18.58761 -12.59952,-23.83037 z"
       sodipodi:nodetypes="cccc" />
    <path
       inkscape:export-ydpi="48"
       inkscape:export-xdpi="48"
       sodipodi:nodetypes="ccccccc"
       id="path1588"
       d="m 71.206864,108.17419 0.79375,-6.35 -3.704167,-4.233331 5.191538,4.019601 0.196956,5.75645 0.750139,2.53474 z"
       style="fill:#2171b9;fill-opacity:1;stroke:none;stroke-width:0.264583px;stroke-linecap:butt;stroke-linejoin:miter;stroke-opacity:1" />
    <path
       inkscape:export-ydpi="48"
       inkscape:export-xdpi="48"
       sodipodi:nodetypes="cccccc"
       id="path1594"
       d="m 66.939583,110.06667 -5.027083,6.35 8.909693,1.82802 0.154121,-1.51748 -6.237637,-1.45715 z"
       style="fill:#2171b9;fill-opacity:1;stroke:none;stroke-width:0.264583px;stroke-linecap:butt;stroke-linejoin:miter;stroke-opacity:1" />
    <path
       inkscape:export-ydpi="48"
       inkscape:export-xdpi="48"
       sodipodi:nodetypes="cccccc"
       id="path1596"
       d="m 63.458142,116.47669 1.629357,0.20456 -2.282071,4.5738 -6.978345,-2.9863 6.293132,1.27355 z"
       style="fill:#2171b9;fill-opacity:1;stroke:none;stroke-width:0.264583px;stroke-linecap:butt;stroke-linejoin:miter;stroke-opacity:1" />
    <path
       inkscape:export-ydpi="48"
       inkscape:export-xdpi="48"
       sodipodi:nodetypes="cccccccccccccccc"
       id="path1624"
       d="m 70.785817,120.34051 -0.04416,2.3087 -8.210257,3.07464 2.316507,4.78048 -6.110406,6.81442 4.113679,-6.85015 -1.018762,-2.05535 -4.610549,3.0918 -9.986546,-2.01062 9.408917,0.34485 4.516552,-3.37357 -1.704611,-2.47442 -5.932063,-2.14447 6.800884,1.18443 1.160653,1.15291 z"
       style="fill:#2171b9;fill-opacity:1;stroke:none;stroke-width:0.264583px;stroke-linecap:butt;stroke-linejoin:miter;stroke-opacity:1" />
    <path
       inkscape:export-ydpi="48"
       inkscape:export-xdpi="48"
       sodipodi:nodetypes="csccc"
       d="m 55.5625,72.674449 c -1.5875,0 -1.852083,0.350551 -1.852083,2.338027 V 79.375 c 0.320582,-3.064338 0.784491,-5.82578 2.910416,-6.614583 -0.144881,-0.08365 -0.259959,-0.08597 -1.058333,-0.08597 z"
       style="fill:#ffffff;fill-opacity:1;stroke:none;stroke-width:0.999998;stroke-linecap:butt;stroke-linejoin:miter;stroke-miterlimit:4;stroke-dasharray:none;stroke-opacity:1"
       id="path1626" />
    <path
       inkscape:export-ydpi="48"
       inkscape:export-xdpi="48"
       id="path1632"
       style="fill:#ffffff;fill-opacity:1;stroke:none;stroke-width:0.999998;stroke-linecap:butt;stroke-linejoin:miter;stroke-miterlimit:4;stroke-dasharray:none;stroke-opacity:1"
       d="m 74.083333,72.674449 c -1.5875,0 -1.852083,0.350551 -1.852083,2.338027 V 79.375 c 0.320582,-3.064338 0.784491,-5.82578 2.910416,-6.614583 -0.144881,-0.08365 -0.259959,-0.08597 -1.058333,-0.08597 z"
       sodipodi:nodetypes="csccc" />
    <path
       inkscape:export-ydpi="48"
       inkscape:export-xdpi="48"
       sodipodi:nodetypes="csccc"
       d="m 92.604166,72.674449 c -1.5875,0 -1.852083,0.350551 -1.852083,2.338027 V 79.375 c 0.320582,-3.064338 0.784491,-5.82578 2.910416,-6.614583 -0.144881,-0.08365 -0.259959,-0.08597 -1.058333,-0.08597 z"
       style="fill:#ffffff;fill-opacity:1;stroke:none;stroke-width:0.999998;stroke-linecap:butt;stroke-linejoin:miter;stroke-miterlimit:4;stroke-dasharray:none;stroke-opacity:1"
       id="path1634" />
    <path
       inkscape:export-ydpi="48"
       inkscape:export-xdpi="48"
       id="path1636"
       style="fill:#ffffff;fill-opacity:1;stroke:none;stroke-width:0.999998;stroke-linecap:butt;stroke-linejoin:miter;stroke-miterlimit:4;stroke-dasharray:none;stroke-opacity:1"
       d="m 111.125,72.674449 c -1.5875,0 -1.85208,0.350551 -1.85208,2.338027 V 79.375 c 0.32058,-3.064338 0.78449,-5.82578 2.91041,-6.614583 -0.14488,-0.08365 -0.25996,-0.08597 -1.05833,-0.08597 z"
       sodipodi:nodetypes="csccc" />
    <path
       inkscape:export-ydpi="48"
       inkscape:export-xdpi="48"
       id="path1638"
       style="fill:#ffffff;fill-opacity:1;stroke:none;stroke-width:0.999998;stroke-linecap:butt;stroke-linejoin:miter;stroke-miterlimit:4;stroke-dasharray:none;stroke-opacity:1"
       d="m 21.080699,105.83333 c 0,-1.5875 0.350551,-1.85208 2.338027,-1.85208 h 4.362524 c -3.064339,0.32058 -5.82578,0.78449 -6.614583,2.91041 -0.08365,-0.14488 -0.08597,-0.25995 -0.08597,-1.05833 z"
       sodipodi:nodetypes="csccc" />
    <path
       inkscape:export-ydpi="48"
       inkscape:export-xdpi="48"
       sodipodi:nodetypes="csccc"
       d="m 21.080699,124.35416 c 0,-1.5875 0.350551,-1.85208 2.338027,-1.85208 h 4.362524 c -3.064339,0.32058 -5.82578,0.78449 -6.614583,2.91041 -0.08365,-0.14488 -0.08597,-0.25995 -0.08597,-1.05833 z"
       style="fill:#ffffff;fill-opacity:1;stroke:none;stroke-width:0.999998;stroke-linecap:butt;stroke-linejoin:miter;stroke-miterlimit:4;stroke-dasharray:none;stroke-opacity:1"
       id="path1640" />
    <path
       inkscape:export-ydpi="48"
       inkscape:export-xdpi="48"
       id="path1642"
       style="fill:#ffffff;fill-opacity:1;stroke:none;stroke-width:0.999998;stroke-linecap:butt;stroke-linejoin:miter;stroke-miterlimit:4;stroke-dasharray:none;stroke-opacity:1"
       d="m 21.080699,142.875 c 0,-1.5875 0.350551,-1.85208 2.338027,-1.85208 h 4.362524 c -3.064339,0.32058 -5.82578,0.78449 -6.614583,2.91041 -0.08365,-0.14488 -0.08597,-0.25995 -0.08597,-1.05833 z"
       sodipodi:nodetypes="csccc" />
    <path
       inkscape:export-ydpi="48"
       inkscape:export-xdpi="48"
       sodipodi:nodetypes="csccc"
       d="m 21.080699,161.39583 c 0,-1.5875 0.350551,-1.85208 2.338027,-1.85208 h 4.362524 c -3.064339,0.32058 -5.82578,0.78449 -6.614583,2.91041 -0.08365,-0.14488 -0.08597,-0.25995 -0.08597,-1.05833 z"
       style="fill:#ffffff;fill-opacity:1;stroke:none;stroke-width:0.999998;stroke-linecap:butt;stroke-linejoin:miter;stroke-miterlimit:4;stroke-dasharray:none;stroke-opacity:1"
       id="path1644" />
    <path
       inkscape:export-ydpi="48"
       inkscape:export-xdpi="48"
       sodipodi:nodetypes="csccc"
       d="m 145.6068,105.83333 c 0,-1.5875 -0.35055,-1.85208 -2.33803,-1.85208 h -4.36252 c 3.06434,0.32058 5.82578,0.78449 6.61458,2.91041 0.0837,-0.14488 0.086,-0.25995 0.086,-1.05833 z"
       style="fill:#ffffff;fill-opacity:1;stroke:none;stroke-width:0.999998;stroke-linecap:butt;stroke-linejoin:miter;stroke-miterlimit:4;stroke-dasharray:none;stroke-opacity:1"
       id="path1646" />
    <path
       inkscape:export-ydpi="48"
       inkscape:export-xdpi="48"
       id="path1648"
       style="fill:#ffffff;fill-opacity:1;stroke:none;stroke-width:0.999998;stroke-linecap:butt;stroke-linejoin:miter;stroke-miterlimit:4;stroke-dasharray:none;stroke-opacity:1"
       d="m 145.6068,124.35416 c 0,-1.5875 -0.35055,-1.85208 -2.33803,-1.85208 h -4.36252 c 3.06434,0.32058 5.82578,0.78449 6.61458,2.91041 0.0837,-0.14488 0.086,-0.25995 0.086,-1.05833 z"
       sodipodi:nodetypes="csccc" />
    <path
       inkscape:export-ydpi="48"
       inkscape:export-xdpi="48"
       id="path1654"
       style="fill:#ffffff;fill-opacity:1;stroke:none;stroke-width:0.999998;stroke-linecap:butt;stroke-linejoin:miter;stroke-miterlimit:4;stroke-dasharray:none;stroke-opacity:1"
       d="m 55.5625,195.87763 c -1.5875,0 -1.852083,-0.35055 -1.852083,-2.33802 v -4.36253 c 0.320582,3.06434 0.784491,5.82578 2.910416,6.61459 -0.144881,0.0837 -0.259959,0.086 -1.058333,0.086 z"
       sodipodi:nodetypes="csccc" />
    <path
       inkscape:export-ydpi="48"
       inkscape:export-xdpi="48"
       sodipodi:nodetypes="csccc"
       d="m 74.083333,195.87763 c -1.5875,0 -1.852083,-0.35055 -1.852083,-2.33802 v -4.36253 c 0.320582,3.06434 0.784491,5.82578 2.910416,6.61459 -0.144881,0.0837 -0.259959,0.086 -1.058333,0.086 z"
       style="fill:#ffffff;fill-opacity:1;stroke:none;stroke-width:0.999998;stroke-linecap:butt;stroke-linejoin:miter;stroke-miterlimit:4;stroke-dasharray:none;stroke-opacity:1"
       id="path1656" />
    <path
       inkscape:export-ydpi="48"
       inkscape:export-xdpi="48"
       id="path1658"
       style="fill:#ffffff;fill-opacity:1;stroke:none;stroke-width:0.999998;stroke-linecap:butt;stroke-linejoin:miter;stroke-miterlimit:4;stroke-dasharray:none;stroke-opacity:1"
       d="m 92.604166,195.87763 c -1.5875,0 -1.852083,-0.35055 -1.852083,-2.33802 v -4.36253 c 0.320582,3.06434 0.784491,5.82578 2.910416,6.61459 -0.144881,0.0837 -0.259959,0.086 -1.058333,0.086 z"
       sodipodi:nodetypes="csccc" />
    <path
       inkscape:export-ydpi="48"
       inkscape:export-xdpi="48"
       sodipodi:nodetypes="csccc"
       d="m 111.125,195.87763 c -1.5875,0 -1.85208,-0.35055 -1.85208,-2.33802 v -4.36253 c 0.32058,3.06434 0.78449,5.82578 2.91041,6.61459 -0.14488,0.0837 -0.25996,0.086 -1.05833,0.086 z"
       style="fill:#ffffff;fill-opacity:1;stroke:none;stroke-width:0.999998;stroke-linecap:butt;stroke-linejoin:miter;stroke-miterlimit:4;stroke-dasharray:none;stroke-opacity:1"
       id="path1660" />
    <ellipse
       inkscape:export-ydpi="48"
       inkscape:export-xdpi="48"
       ry="1.984375"
       rx="1.9843743"
       cy="167.34895"
       cx="49.609375"
       id="path1662"
       style="fill:#2171b9;fill-opacity:1;stroke:none;stroke-width:1;stroke-linejoin:bevel;stroke-miterlimit:4;stroke-dasharray:none;stroke-opacity:1" />
  </g>
</svg>
